<svg width="235" height="235" viewBox="0 0 235 235" fill="none" xmlns="http://www.w3.org/2000/svg">
<rect width="235" height="235" rx="23" fill="#FFEB35"/>
<path d="M152.126 141.9L155.591 138.435C158.416 135.61 158.416 131.029 155.591 128.204L152.293 124.907C161.044 126.328 170.372 123.653 177.146 116.879L197.881 96.144C200.706 93.3188 200.706 88.7377 197.881 85.9125C195.056 83.0873 190.475 83.0873 187.65 85.9125L175.372 98.1906L167.735 90.5544C170.596 88.8623 173.263 86.8123 175.66 84.4155C182.367 77.7085 186.472 68.8078 187.221 59.3519L187.632 54.1513C187.799 52.0394 187.033 49.9611 185.536 48.4641C184.039 46.9668 181.96 46.2004 179.849 46.3672L174.648 46.7794C165.193 47.5275 156.292 51.6338 149.585 58.3407C147.188 60.7378 145.138 63.4042 143.446 66.2648L135.809 58.6284L148.087 46.3504C150.913 43.5251 150.913 38.9441 148.087 36.1189C145.262 33.2937 140.681 33.2937 137.856 36.1189L117.121 56.854C110.347 63.6281 107.672 72.9553 109.094 81.7068L105.797 78.4097C102.971 75.5845 98.3904 75.5845 95.5652 78.4097L92.1007 81.8742C85.1703 88.8046 82.5705 98.4459 84.3049 107.394L80.5588 103.648C77.7336 100.823 73.1525 100.823 70.3273 103.648L67.0808 106.895C60.4726 113.503 57.7271 122.516 58.8591 131.061L56.0027 128.204C53.1775 125.379 48.5965 125.379 45.7713 128.204L42.3434 131.632C31.2573 142.718 31.2133 160.712 42.2454 171.744L47.1355 176.634L39.2911 184.479C36.4659 187.304 36.4659 191.885 39.2911 194.71C42.1163 197.535 46.6973 197.535 49.5225 194.71L57.3669 186.866L62.2573 191.756C73.2891 202.788 91.2829 202.744 102.369 191.658L105.797 188.23C108.622 185.405 108.622 180.824 105.797 177.998L102.941 175.142C111.485 176.275 120.498 173.529 127.106 166.92L130.353 163.674C133.178 160.849 133.178 156.268 130.353 153.442L126.607 149.696C135.554 151.429 145.196 148.83 152.126 141.9ZM134.096 77.3783C136.115 79.3975 137.441 81.9713 137.946 84.7346C137.941 84.8411 137.931 84.9462 137.927 85.0522L137.896 85.8711L132.057 91.7101L127.167 86.82C122.371 82.0245 121.912 74.4897 125.735 69.0178L134.096 77.3783ZM57.3661 166.401L52.476 161.511C47.655 156.69 47.1806 149.132 51.029 143.693L59.4052 152.07C61.6532 154.318 63.0428 157.252 63.3952 160.372L57.3661 166.401ZM81.9221 141.845L77.032 136.955C72.2628 132.186 71.8115 124.672 75.6116 119.164L83.9613 127.514C86.2092 129.762 87.5991 132.696 87.9513 135.816L81.9221 141.845ZM107.16 116.607L102.27 111.717C97.4395 106.886 96.9608 99.3177 100.818 93.894L109.199 102.275C111.447 104.523 112.837 107.458 113.189 110.578L107.16 116.607ZM152.973 81.0262C154.012 76.3375 156.363 72.0244 159.816 68.5722C163.245 65.1429 167.575 62.7804 172.265 61.7341C171.218 66.4242 168.856 70.7539 165.427 74.1832C161.975 77.6354 157.662 79.9865 152.973 81.0262ZM148.127 96.1034L148.947 96.0723C149.053 96.0683 149.158 96.058 149.265 96.0529C152.028 96.5582 154.602 97.8841 156.621 99.9032L164.981 108.263C159.509 112.087 151.974 111.628 147.179 106.832L142.289 101.942L148.127 96.1034ZM98.1825 146.048C101.302 146.401 104.238 147.791 106.486 150.038L114.835 158.388C109.327 162.188 101.813 161.737 97.0439 156.968L92.1536 152.077L98.1825 146.048ZM72.4882 181.523L67.5978 176.633L73.6267 170.604C76.7464 170.957 79.6822 172.347 81.9298 174.594L90.3058 182.97C84.8673 186.818 77.3085 186.344 72.4882 181.523ZM122.282 131.729L117.392 126.839L123.421 120.81C126.541 121.162 129.476 122.552 131.724 124.8L140.105 133.181C134.681 137.039 127.113 136.56 122.282 131.729Z" fill="#C2A53B"/>
</svg>
