<svg width="235" height="235" viewBox="0 0 235 235" fill="none" xmlns="http://www.w3.org/2000/svg">
<rect width="235" height="235" rx="23" fill="#59D2EC"/>
<path d="M166.473 74.9757C152.354 72.8213 137.92 74.2746 124.515 79.2003L121.746 80.2565C103.602 87.6071 83.8113 89.9289 64.4583 86.9774C56.1531 85.6972 47.4959 83.6329 39.9108 79.8484C37.1469 78.4787 35.0165 76.0974 33.9617 73.1987C32.907 70.2999 33.0088 67.1063 34.2461 64.2807C35.4834 61.455 37.7612 59.2143 40.6068 58.0234C43.4523 56.8326 46.6471 56.7831 49.5282 57.8853L50.5843 58.3494C56.0411 60.9097 62.186 62.3419 68.1068 63.2541C78.8604 64.9023 93.5744 65.0143 110.065 59.0215L112.833 57.9653C130.978 50.6147 150.768 48.2929 170.121 51.2444C178.426 52.5245 187.076 54.5968 194.653 58.3654C197.483 59.8093 199.633 62.3078 200.639 65.3221C201.645 68.3364 201.426 71.6252 200.03 74.4797C197.077 80.3845 191.052 81.7367 183.987 79.8724L166.473 74.9757ZM166.473 122.983C152.354 120.828 137.92 122.281 124.515 127.207L121.746 128.263C103.602 135.614 83.8113 137.936 64.4583 134.984C56.1531 133.704 47.4959 131.64 39.9108 127.855C37.1469 126.486 35.0165 124.104 33.9617 121.205C32.907 118.307 33.0088 115.113 34.2461 112.287C35.4834 109.462 37.7612 107.221 40.6068 106.03C43.4523 104.839 46.6471 104.79 49.5282 105.892L50.5843 106.356C56.0411 108.917 62.186 110.349 68.1068 111.261C78.8604 112.909 93.5744 113.021 110.065 107.028L112.833 105.972C130.978 98.6215 150.768 96.2997 170.121 99.2512C178.426 100.531 187.076 102.604 194.653 106.372C197.483 107.816 199.633 110.315 200.639 113.329C201.645 116.343 201.426 119.632 200.03 122.486C197.077 128.399 191.052 129.743 183.987 127.879L166.473 122.983ZM118.834 177.39L121.746 176.27C135.908 170.514 151.36 168.689 166.473 170.989L183.995 175.886C191.052 177.75 197.077 176.406 200.038 170.493C201.431 167.639 201.647 164.351 200.64 161.339C199.633 158.326 197.483 155.83 194.653 154.387C187.076 150.61 178.426 148.546 170.121 147.266C151.812 144.468 133.092 146.396 115.738 152.867L112.833 153.987C95.2147 161.028 79.4524 161.012 68.1068 159.268C63.0341 158.484 57.7854 157.323 52.9607 155.395L50.5843 154.355C47.7323 152.94 44.4349 152.715 41.4174 153.731C38.3998 154.747 35.9095 156.92 34.4941 159.772C33.0787 162.624 32.8542 165.921 33.87 168.939C34.8859 171.956 37.0588 174.447 39.9108 175.862C47.4879 179.647 56.1531 181.711 64.4583 182.983C78.4763 185.143 97.607 185.223 118.834 177.382V177.39Z" fill="#3190A5"/>
</svg>
